# xmcd
#
# Track frame offsets:
#	150
#	17954
#	31839
#	49544
#	63090
#	84064
#	96389
#	112978
#	129462
#	148927
#	168445
#	181621
#	199366
#
# Disc length: 2925 seconds
# Revision: 0
# Processed by: cddbd v1.5.2PL0 Copyright (c) Steve Scherf et al.
# Submitted via: dBpowerAMP V12.0
#
DISCID=a50b6b0d
DTITLE=The Strange Tones - At Home With The Strange Tones
DYEAR=2013
DGENRE=Blues
TTITLE0=Lost
TTITLE1=All There Is To It
TTITLE2=Strolln' With You
TTITLE3=Cindy Lu
TTITLE4=Something's Following You
TTITLE5=My Man
TTITLE6=At Home With The Strange Tones
TTITLE7=Now You Don't 
TTITLE8=I've Got Gas
TTITLE9=Weepin' And Moanin'
TTITLE10=Volcano Sacrifice
TTITLE11=Better Times
TTITLE12=Somethin's Still Following You
EXTD=
EXTT0=
EXTT1=
EXTT2=
EXTT3=
EXTT4=
EXTT5=
EXTT6=
EXTT7=
EXTT8=
EXTT9=
EXTT10=
EXTT11=
EXTT12=
PLAYORDER=
